<?xml version="1.0" standalone="no"?><!DOCTYPE svg PUBLIC "-//W3C//DTD SVG 1.1//EN" "http://www.w3.org/Graphics/SVG/1.1/DTD/svg11.dtd"><svg t="1601564453693" class="icon" viewBox="0 0 1024 1024" version="1.1" xmlns="http://www.w3.org/2000/svg" p-id="6738" xmlns:xlink="http://www.w3.org/1999/xlink" width="200" height="200"><defs><style type="text/css"></style></defs><path d="M752 202.4v-18.6L720.2 152H632l-4.60000031 13.39999969C613.80000031 204.60000031 566.19999969 231.99999969 512 231.99999969s-101.80000031-27.40000031-115.8-66.6L392 152h-88.2L272 183.8v18.6l-195.6 195.40000031V471.99999969l133.2 132L252.00000031 561.60000031v238.59999938L303.8 852.00000031H552.00000031v-40.00000031H320.19999969L291.99999969 783.8V465.2l-82.39999969 82.39999969-93.19999969-93.19999969v-40.00000031L312.00000031 218.79999969v-18.6l8.19999938-8.19999938h44.00000062A164.4 164.4 0 0 0 512 272a164.4 164.4 0 0 0 147.79999969-79.99999969h44.00000062l8.19999938 8.19999938v18.6l195.6 195.6v40.00000031l-93.19999969 93.19999969L732.00000031 465.2v318.6L703.80000031 812H632v40.00000031h88.2L771.99999969 800.19999969V561.60000031l42.40000031 42.39999938 133.2-132v-74.19999938z" p-id="6739"></path></svg>